<svg id="Capa_1" data-name="Capa 1" xmlns="http://www.w3.org/2000/svg" viewBox="0 0 152.71 100"><defs><style>.cls-1{fill:#cb561c;}.cls-2{fill:#c0101a;}.cls-3{fill:#de9c1d;}.cls-4{fill:#fff;}</style></defs><title>Caso de uso - PROPTECH</title><rect class="cls-1" x="55.61" y="11.32" width="41.33" height="74.27"/><path class="cls-2" d="M58.23,48.45a47.36,47.36,0,0,1,18-37.13A47.22,47.22,0,1,0,47.08,95.69,47,47,0,0,0,76.21,85.58,47.17,47.17,0,0,1,58.23,48.45Z"/><path class="cls-3" d="M152.71,48.45A47.18,47.18,0,0,1,76.34,85.58a47.33,47.33,0,0,0,0-74.26,47.18,47.18,0,0,1,76.37,37.13Z"/><path class="cls-4" d="M27.66,58.52V50.65a4.62,4.62,0,0,0-5-5,5.17,5.17,0,0,0-4.46,2.23A4.6,4.6,0,0,0,14,45.66a4.22,4.22,0,0,0-3.67,1.84V45.92H7.58v12.6h2.76v-7c0-2.23,1.18-3.28,3-3.28s2.75,1.18,2.75,3.28v7h2.76v-7c0-2.23,1.31-3.28,3-3.28s2.75,1.18,2.75,3.28v7Zm40.81-12.6H64v-3.8H61.25v3.8H58.76v2.49h2.49v5.78c0,2.88,1.18,4.59,4.33,4.59A7.28,7.28,0,0,0,69,57.86L68.2,55.5a4.25,4.25,0,0,1-2.36.66c-1.31,0-1.83-.79-1.83-2.1V48.41h4.46V45.92Zm23.35-.26a3.71,3.71,0,0,0-3.28,1.84V45.92H85.79v12.6h2.75V51.43c0-2.1.92-3.28,2.63-3.28a7.7,7.7,0,0,1,1.7.26l.79-2.62a8.72,8.72,0,0,0-1.84-.13ZM56.53,47a9,9,0,0,0-5.12-1.31c-3.15,0-5.25,1.57-5.25,4.07,0,2.1,1.57,3.28,4.33,3.67l1.31.13c1.45.26,2.23.66,2.23,1.31,0,.92-1.05,1.58-2.88,1.58A7.29,7.29,0,0,1,47,55.11l-1.31,2.1A9.26,9.26,0,0,0,51,58.78c3.67,0,5.77-1.71,5.77-4.07s-1.71-3.41-4.33-3.8l-1.31-.13c-1.18-.13-2.1-.4-2.1-1.18s.92-1.45,2.36-1.45a9.57,9.57,0,0,1,3.94,1.05L56.53,47Zm73.21-1.31a3.71,3.71,0,0,0-3.28,1.84V45.92h-2.75v12.6h2.75V51.43c0-2.1.92-3.28,2.63-3.28a7.7,7.7,0,0,1,1.7.26l.79-2.62a8.72,8.72,0,0,0-1.84-.13ZM94.58,52.22a6.3,6.3,0,0,0,6.69,6.56,6.51,6.51,0,0,0,4.46-1.44l-1.31-2.23a5.35,5.35,0,0,1-3.28,1.18,3.73,3.73,0,0,1-3.81-4.07,3.88,3.88,0,0,1,3.81-4.07,5.35,5.35,0,0,1,3.28,1.18l1.31-2.23a6.51,6.51,0,0,0-4.46-1.44,6.3,6.3,0,0,0-6.69,6.56Zm25.45,0v-6.3h-2.75V47.5a4.75,4.75,0,0,0-3.94-1.84,6.28,6.28,0,0,0-6.3,6.56,6.28,6.28,0,0,0,6.3,6.56,4.43,4.43,0,0,0,3.94-1.84v1.58H120Zm-10.1,0a3.81,3.81,0,1,1,7.61,0,3.81,3.81,0,1,1-7.61,0ZM77,45.66c-3.68,0-6.3,2.62-6.3,6.56a6.16,6.16,0,0,0,6.43,6.56,8,8,0,0,0,5.11-1.71l-1.31-2a6.31,6.31,0,0,1-3.67,1.31,3.55,3.55,0,0,1-3.81-3h9.32v-1c.13-4.07-2.23-6.69-5.77-6.69ZM77,48c1.7,0,2.88,1,3.14,3H73.58A3.33,3.33,0,0,1,77,48Zm68.36,4.2V40.94H142.6V47.5a4.74,4.74,0,0,0-3.93-1.84,6.28,6.28,0,0,0-6.3,6.56,6.28,6.28,0,0,0,6.3,6.56,4.41,4.41,0,0,0,3.93-1.84v1.58h2.76Zm-10.11,0a3.82,3.82,0,1,1,7.62,0,3.82,3.82,0,1,1-7.62,0Zm-92.11,0v-6.3H40.39V47.5a4.75,4.75,0,0,0-3.94-1.84,6.28,6.28,0,0,0-6.3,6.56,6.28,6.28,0,0,0,6.3,6.56,4.43,4.43,0,0,0,3.94-1.84v1.58h2.75Zm-10.23,0a3.81,3.81,0,1,1,7.61,0,3.81,3.81,0,1,1-7.61,0Z"/></svg>