<?xml version="1.0" encoding="utf-8"?>
<!-- Generator: Adobe Illustrator 23.1.1, SVG Export Plug-In . SVG Version: 6.00 Build 0)  -->
<svg version="1.1" id="Layer_1" xmlns="http://www.w3.org/2000/svg" xmlns:xlink="http://www.w3.org/1999/xlink" x="0px" y="0px"
	 viewBox="0 0 94.56 29.78" style="enable-background:new 0 0 94.56 29.78;" xml:space="preserve">
<style type="text/css">
	.st0{fill:#F4CD2A;}
	.st1{opacity:0.2;fill:#B6C5E6;}
	.st2{fill:#E6602E;}
	.st3{fill:#242A59;}
	.st4{opacity:0.1;fill:#28717D;}
	.st5{fill:#FFC629;}
	.st6{fill-rule:evenodd;clip-rule:evenodd;fill:#F29100;}
	.st7{fill:#28717D;}
	.st8{opacity:0.11;fill:#B6C8FB;}
	.st9{fill:#F4F7FE;}
	.st10{fill:#041266;}
	.st11{fill:#F7CD4F;}
	.st12{fill:#4A59D9;}
	.st13{fill:#FFFFFF;}
	.st14{fill:#1532E2;}
	.st15{fill:#B6C8FB;}
	.st16{opacity:0.5;fill:#B6C8FB;}
	.st17{fill:none;stroke:#B6C8FB;stroke-width:2;stroke-miterlimit:10;}
	.st18{opacity:0.6;}
	.st19{fill:#1D1D1B;}
	.st20{opacity:0.3;fill:#B6C8FB;}
	.st21{fill:#789EF4;}
	.st22{opacity:0.6;fill:#FFFFFF;}
	.st23{fill:#F8EAEA;}
	.st24{fill:#E8736D;}
	.st25{fill:#216169;}
	.st26{fill:#B42F2A;}
	.st27{fill:#F8B133;}
	.st28{opacity:0.3;fill:#F8B133;}
	.st29{fill:#F7CC4E;}
	.st30{fill:#E77817;}
	.st31{fill:#009FE3;}
	.st32{fill-rule:evenodd;clip-rule:evenodd;fill:#242A59;}
	.st33{fill-rule:evenodd;clip-rule:evenodd;fill:#F7CD4F;}
	.st34{fill-rule:evenodd;clip-rule:evenodd;fill:#F8B133;}
	.st35{opacity:0.95;fill:#FFFFFF;}
	.st36{fill:#7C98CE;}
	.st37{fill:#DFA100;}
	.st38{opacity:0.2;fill:#4759A3;}
	.st39{opacity:0.5;}
	.st40{fill:#B6C5E6;}
	.st41{fill:none;stroke:#F2C1BD;stroke-width:46;stroke-linecap:round;stroke-linejoin:round;stroke-miterlimit:10;}
	.st42{fill:#4759A3;}
	.st43{fill:#AD0E21;}
	.st44{fill:#233366;}
	.st45{fill:none;stroke:#FFFFFF;stroke-width:3;stroke-miterlimit:10;}
	.st46{fill-rule:evenodd;clip-rule:evenodd;fill:#AD0E21;}
	.st47{opacity:0.1;fill:#4759A3;}
	.st48{fill:#F7E8E9;}
	.st49{fill:#D9A237;}
	.st50{fill:#2F1618;}
	.st51{fill:#F4CFC2;}
	.st52{fill:#E9736F;}
	.st53{opacity:0.1;fill:#B6C8FB;}
	.st54{fill:none;stroke:#B6C8FB;stroke-miterlimit:10;}
	.st55{fill:url(#SVGID_1_);}
	.st56{fill:url(#SVGID_2_);}
	.st57{fill:url(#SVGID_3_);}
	.st58{fill:url(#SVGID_4_);}
	.st59{fill:url(#SVGID_5_);}
	.st60{fill:url(#SVGID_6_);}
	.st61{fill:url(#SVGID_7_);}
	.st62{fill:url(#SVGID_8_);}
	.st63{clip-path:url(#XMLID_17_);}
	.st64{filter:url(#Adobe_OpacityMaskFilter);}
	.st65{mask:url(#SVGID_9_);}
	.st66{fill:url(#SVGID_10_);}
	.st67{opacity:0.05;fill:url(#);}
	.st68{filter:url(#Adobe_OpacityMaskFilter_1_);}
	.st69{mask:url(#SVGID_11_);}
	.st70{fill:#704640;}
	.st71{clip-path:url(#XMLID_17_);fill:url(#SVGID_12_);}
	.st72{clip-path:url(#XMLID_17_);fill:url(#SVGID_13_);}
	.st73{clip-path:url(#XMLID_17_);fill:url(#SVGID_14_);}
	.st74{clip-path:url(#XMLID_17_);fill:url(#SVGID_15_);}
	.st75{fill:url(#SVGID_16_);}
	.st76{fill:url(#SVGID_17_);}
	.st77{fill:url(#SVGID_18_);}
	.st78{fill:url(#SVGID_19_);}
	.st79{fill:url(#SVGID_20_);}
	.st80{clip-path:url(#SVGID_22_);}
	.st81{fill:#333333;}
	.st82{opacity:0.09;fill:url(#);}
	.st83{fill:#0F0F0F;}
	.st84{fill:#2B2726;}
	.st85{clip-path:url(#XMLID_18_);}
	.st86{filter:url(#Adobe_OpacityMaskFilter_2_);}
	.st87{mask:url(#SVGID_23_);}
	.st88{fill:#707070;}
	.st89{opacity:0.52;clip-path:url(#XMLID_18_);}
	.st90{filter:url(#Adobe_OpacityMaskFilter_3_);}
	.st91{mask:url(#SVGID_24_);}
	.st92{fill:#0D1220;}
	.st93{opacity:0.9;clip-path:url(#XMLID_18_);}
	.st94{filter:url(#Adobe_OpacityMaskFilter_4_);}
	.st95{mask:url(#SVGID_25_);}
	.st96{clip-path:url(#XMLID_19_);}
	.st97{filter:url(#Adobe_OpacityMaskFilter_5_);}
	.st98{mask:url(#SVGID_26_);}
	.st99{fill:#11151C;}
	.st100{opacity:0.61;clip-path:url(#XMLID_19_);}
	.st101{filter:url(#Adobe_OpacityMaskFilter_6_);}
	.st102{mask:url(#SVGID_27_);}
	.st103{fill:#363D32;}
	.st104{filter:url(#Adobe_OpacityMaskFilter_7_);}
	.st105{mask:url(#SVGID_28_);}
	.st106{fill:#2F435C;}
	.st107{filter:url(#Adobe_OpacityMaskFilter_8_);}
	.st108{mask:url(#SVGID_29_);}
	.st109{fill:#507ACC;}
	.st110{filter:url(#Adobe_OpacityMaskFilter_9_);}
	.st111{mask:url(#SVGID_30_);}
	.st112{fill:#294F9B;}
	.st113{filter:url(#Adobe_OpacityMaskFilter_10_);}
	.st114{mask:url(#SVGID_31_);}
	.st115{fill:#6186C6;}
	.st116{opacity:0.59;clip-path:url(#XMLID_19_);}
	.st117{filter:url(#Adobe_OpacityMaskFilter_11_);}
	.st118{mask:url(#SVGID_32_);}
	.st119{fill:#1F262B;}
	.st120{opacity:0.1;}
	.st121{fill:url(#SVGID_33_);}
	.st122{opacity:0.08;fill:url(#);}
	.st123{opacity:0.04;}
	.st124{filter:url(#Adobe_OpacityMaskFilter_12_);}
	.st125{mask:url(#SVGID_34_);}
	.st126{clip-path:url(#XMLID_21_);}
	.st127{fill:#F3F3F3;}
	.st128{fill:url(#SVGID_37_);}
	.st129{fill:url(#SVGID_38_);}
	.st130{fill:url(#SVGID_39_);}
	.st131{fill:url(#SVGID_40_);}
	.st132{fill:url(#SVGID_41_);}
	.st133{fill:url(#SVGID_42_);}
	.st134{fill:url(#SVGID_43_);}
	.st135{fill:url(#SVGID_44_);}
	.st136{clip-path:url(#XMLID_23_);}
	.st137{filter:url(#Adobe_OpacityMaskFilter_13_);}
	.st138{mask:url(#SVGID_45_);}
	.st139{fill:url(#SVGID_46_);}
	.st140{filter:url(#Adobe_OpacityMaskFilter_14_);}
	.st141{mask:url(#SVGID_47_);}
	.st142{clip-path:url(#XMLID_23_);fill:url(#SVGID_48_);}
	.st143{clip-path:url(#XMLID_23_);fill:url(#SVGID_49_);}
	.st144{clip-path:url(#XMLID_23_);fill:url(#SVGID_50_);}
	.st145{clip-path:url(#XMLID_23_);fill:url(#SVGID_51_);}
	.st146{fill:url(#SVGID_52_);}
	.st147{fill:url(#SVGID_53_);}
	.st148{fill:url(#SVGID_54_);}
	.st149{fill:url(#SVGID_55_);}
	.st150{fill:url(#SVGID_56_);}
	.st151{clip-path:url(#SVGID_58_);}
	.st152{clip-path:url(#XMLID_24_);}
	.st153{filter:url(#Adobe_OpacityMaskFilter_15_);}
	.st154{mask:url(#SVGID_59_);}
	.st155{opacity:0.52;clip-path:url(#XMLID_24_);}
	.st156{filter:url(#Adobe_OpacityMaskFilter_16_);}
	.st157{mask:url(#SVGID_60_);}
	.st158{opacity:0.9;clip-path:url(#XMLID_24_);}
	.st159{filter:url(#Adobe_OpacityMaskFilter_17_);}
	.st160{mask:url(#SVGID_61_);}
	.st161{clip-path:url(#XMLID_29_);}
	.st162{filter:url(#Adobe_OpacityMaskFilter_18_);}
	.st163{mask:url(#SVGID_62_);}
	.st164{opacity:0.61;clip-path:url(#XMLID_29_);}
	.st165{filter:url(#Adobe_OpacityMaskFilter_19_);}
	.st166{mask:url(#SVGID_63_);}
	.st167{filter:url(#Adobe_OpacityMaskFilter_20_);}
	.st168{mask:url(#SVGID_64_);}
	.st169{filter:url(#Adobe_OpacityMaskFilter_21_);}
	.st170{mask:url(#SVGID_65_);}
	.st171{filter:url(#Adobe_OpacityMaskFilter_22_);}
	.st172{mask:url(#SVGID_66_);}
	.st173{filter:url(#Adobe_OpacityMaskFilter_23_);}
	.st174{mask:url(#SVGID_67_);}
	.st175{opacity:0.59;clip-path:url(#XMLID_29_);}
	.st176{filter:url(#Adobe_OpacityMaskFilter_24_);}
	.st177{mask:url(#SVGID_68_);}
	.st178{fill:url(#SVGID_69_);}
	.st179{filter:url(#Adobe_OpacityMaskFilter_25_);}
	.st180{mask:url(#SVGID_70_);}
	.st181{clip-path:url(#XMLID_37_);}
	.st182{fill:url(#SVGID_73_);}
	.st183{fill:url(#SVGID_74_);}
	.st184{fill:url(#SVGID_75_);}
	.st185{fill:url(#SVGID_76_);}
	.st186{fill:url(#SVGID_77_);}
	.st187{fill:url(#SVGID_78_);}
	.st188{fill:url(#SVGID_79_);}
	.st189{fill:url(#SVGID_80_);}
	.st190{clip-path:url(#XMLID_39_);}
	.st191{filter:url(#Adobe_OpacityMaskFilter_26_);}
	.st192{mask:url(#SVGID_81_);}
	.st193{fill:url(#SVGID_82_);}
	.st194{filter:url(#Adobe_OpacityMaskFilter_27_);}
	.st195{mask:url(#SVGID_83_);}
	.st196{clip-path:url(#XMLID_39_);fill:url(#SVGID_84_);}
	.st197{clip-path:url(#XMLID_39_);fill:url(#SVGID_85_);}
	.st198{clip-path:url(#XMLID_39_);fill:url(#SVGID_86_);}
	.st199{clip-path:url(#XMLID_39_);fill:url(#SVGID_87_);}
	.st200{fill:url(#SVGID_88_);}
	.st201{fill:url(#SVGID_89_);}
	.st202{fill:url(#SVGID_90_);}
	.st203{fill:url(#SVGID_91_);}
	.st204{fill:url(#SVGID_92_);}
	.st205{clip-path:url(#SVGID_94_);}
	.st206{clip-path:url(#XMLID_40_);}
	.st207{filter:url(#Adobe_OpacityMaskFilter_28_);}
	.st208{mask:url(#SVGID_95_);}
	.st209{opacity:0.52;clip-path:url(#XMLID_40_);}
	.st210{filter:url(#Adobe_OpacityMaskFilter_29_);}
	.st211{mask:url(#SVGID_96_);}
	.st212{opacity:0.9;clip-path:url(#XMLID_40_);}
	.st213{filter:url(#Adobe_OpacityMaskFilter_30_);}
	.st214{mask:url(#SVGID_97_);}
	.st215{clip-path:url(#XMLID_41_);}
	.st216{filter:url(#Adobe_OpacityMaskFilter_31_);}
	.st217{mask:url(#SVGID_98_);}
	.st218{opacity:0.61;clip-path:url(#XMLID_41_);}
	.st219{filter:url(#Adobe_OpacityMaskFilter_32_);}
	.st220{mask:url(#SVGID_99_);}
	.st221{filter:url(#Adobe_OpacityMaskFilter_33_);}
	.st222{mask:url(#SVGID_100_);}
	.st223{filter:url(#Adobe_OpacityMaskFilter_34_);}
	.st224{mask:url(#SVGID_101_);}
	.st225{filter:url(#Adobe_OpacityMaskFilter_35_);}
	.st226{mask:url(#SVGID_102_);}
	.st227{filter:url(#Adobe_OpacityMaskFilter_36_);}
	.st228{mask:url(#SVGID_103_);}
	.st229{opacity:0.59;clip-path:url(#XMLID_41_);}
	.st230{filter:url(#Adobe_OpacityMaskFilter_37_);}
	.st231{mask:url(#SVGID_104_);}
	.st232{fill:url(#SVGID_105_);}
	.st233{filter:url(#Adobe_OpacityMaskFilter_38_);}
	.st234{mask:url(#SVGID_106_);}
	.st235{clip-path:url(#XMLID_43_);}
	.st236{fill:url(#SVGID_109_);}
	.st237{fill:url(#SVGID_110_);}
	.st238{fill:url(#SVGID_111_);}
	.st239{fill:url(#SVGID_112_);}
	.st240{fill:url(#SVGID_113_);}
	.st241{fill:url(#SVGID_114_);}
	.st242{fill:url(#SVGID_115_);}
	.st243{fill:url(#SVGID_116_);}
	.st244{clip-path:url(#XMLID_45_);}
	.st245{filter:url(#Adobe_OpacityMaskFilter_39_);}
	.st246{mask:url(#SVGID_117_);}
	.st247{fill:url(#SVGID_118_);}
	.st248{filter:url(#Adobe_OpacityMaskFilter_40_);}
	.st249{mask:url(#SVGID_119_);}
	.st250{clip-path:url(#XMLID_45_);fill:url(#SVGID_120_);}
	.st251{clip-path:url(#XMLID_45_);fill:url(#SVGID_121_);}
	.st252{clip-path:url(#XMLID_45_);fill:url(#SVGID_122_);}
	.st253{clip-path:url(#XMLID_45_);fill:url(#SVGID_123_);}
	.st254{fill:url(#SVGID_124_);}
	.st255{fill:url(#SVGID_125_);}
	.st256{fill:url(#SVGID_126_);}
	.st257{fill:url(#SVGID_127_);}
	.st258{fill:url(#SVGID_128_);}
	.st259{clip-path:url(#SVGID_130_);}
	.st260{clip-path:url(#XMLID_46_);}
	.st261{filter:url(#Adobe_OpacityMaskFilter_41_);}
	.st262{mask:url(#SVGID_131_);}
	.st263{opacity:0.52;clip-path:url(#XMLID_46_);}
	.st264{filter:url(#Adobe_OpacityMaskFilter_42_);}
	.st265{mask:url(#SVGID_132_);}
	.st266{opacity:0.9;clip-path:url(#XMLID_46_);}
	.st267{filter:url(#Adobe_OpacityMaskFilter_43_);}
	.st268{mask:url(#SVGID_133_);}
	.st269{clip-path:url(#XMLID_47_);}
	.st270{filter:url(#Adobe_OpacityMaskFilter_44_);}
	.st271{mask:url(#SVGID_134_);}
	.st272{opacity:0.61;clip-path:url(#XMLID_47_);}
	.st273{filter:url(#Adobe_OpacityMaskFilter_45_);}
	.st274{mask:url(#SVGID_135_);}
	.st275{filter:url(#Adobe_OpacityMaskFilter_46_);}
	.st276{mask:url(#SVGID_136_);}
	.st277{filter:url(#Adobe_OpacityMaskFilter_47_);}
	.st278{mask:url(#SVGID_137_);}
	.st279{filter:url(#Adobe_OpacityMaskFilter_48_);}
	.st280{mask:url(#SVGID_138_);}
	.st281{filter:url(#Adobe_OpacityMaskFilter_49_);}
	.st282{mask:url(#SVGID_139_);}
	.st283{opacity:0.59;clip-path:url(#XMLID_47_);}
	.st284{filter:url(#Adobe_OpacityMaskFilter_50_);}
	.st285{mask:url(#SVGID_140_);}
	.st286{fill:url(#SVGID_141_);}
	.st287{filter:url(#Adobe_OpacityMaskFilter_51_);}
	.st288{mask:url(#SVGID_142_);}
	.st289{clip-path:url(#XMLID_49_);}
	.st290{fill:#E30613;}
	.st291{fill:#FFE54A;}
</style>
<g>
	<path class="st19" d="M46.2,13.53c0.29,0.18,0.63,0.28,0.97,0.28c0.55,0,0.88-0.28,0.88-0.72c0-0.39-0.22-0.62-0.79-0.83
		c-0.69-0.25-1.11-0.61-1.11-1.2c0-0.66,0.55-1.15,1.36-1.15c0.32-0.01,0.64,0.06,0.93,0.21l-0.15,0.44
		c-0.24-0.14-0.51-0.21-0.79-0.2c-0.58,0-0.8,0.34-0.8,0.63c0,0.4,0.26,0.59,0.83,0.83c0.71,0.28,1.07,0.62,1.07,1.24
		c0,0.62-0.47,1.21-1.47,1.21c-0.38,0-0.75-0.09-1.08-0.28L46.2,13.53"/>
	<path class="st19" d="M49.69,12.77c-0.05,0.53,0.34,1,0.87,1.05c0.05,0,0.11,0.01,0.16,0c0.29,0.01,0.58-0.04,0.84-0.15l0.1,0.39
		c-0.32,0.13-0.66,0.2-1.01,0.19c-0.93,0-1.49-0.62-1.49-1.53s0.55-1.64,1.43-1.64c0.99,0,1.25,0.87,1.25,1.43
		c0,0.09,0,0.18-0.02,0.28h-2.13 M51.3,12.4c0-0.35-0.14-0.9-0.75-0.9c-0.57,0-0.81,0.51-0.85,0.9H51.3z"/>
	<path class="st19" d="M54.68,14.09c-0.28,0.12-0.57,0.18-0.87,0.17c-0.92,0-1.51-0.62-1.51-1.55c-0.04-0.85,0.62-1.58,1.47-1.62
		c0.05,0,0.1,0,0.16,0c0.26-0.01,0.52,0.05,0.76,0.16l-0.12,0.42c-0.2-0.1-0.42-0.15-0.64-0.14c-0.7,0-1.07,0.52-1.07,1.15
		c-0.05,0.57,0.37,1.08,0.94,1.13c0.04,0,0.07,0,0.11,0c0.23,0,0.46-0.05,0.67-0.15L54.68,14.09"/>
	<path class="st19" d="M57.86,13.37c0,0.31,0,0.59,0.03,0.83H57.4l-0.03-0.49h-0.01c-0.21,0.35-0.59,0.56-1,0.55
		c-0.48,0-1.05-0.28-1.05-1.33v-1.76h0.55v1.67c0,0.58,0.18,0.97,0.68,0.97c0.32,0,0.61-0.21,0.73-0.51
		c0.04-0.09,0.05-0.18,0.05-0.28v-1.86h0.55L57.86,13.37"/>
	<path class="st19" d="M58.79,12.11c0-0.36,0-0.66-0.02-0.95h0.48l0.02,0.6h0.02c0.11-0.38,0.44-0.64,0.83-0.67
		c0.05,0,0.1,0.01,0.15,0.02v0.51c-0.06,0-0.12,0-0.19,0c-0.39,0.02-0.7,0.32-0.74,0.7c-0.02,0.09-0.02,0.18-0.02,0.28v1.61h-0.55
		v-2.11"/>
	<path class="st19" d="M61.12,10.6c-0.2,0-0.35-0.16-0.35-0.35c0-0.2,0.16-0.35,0.35-0.35c0.19-0.02,0.35,0.12,0.37,0.3
		c0,0.02,0,0.03,0,0.05c0.01,0.19-0.14,0.35-0.33,0.36c-0.01,0-0.01,0-0.02,0l0,0 M61.41,14.2h-0.55v-3.04h0.55V14.2z"/>
	<path class="st19" d="M62.98,10.43v0.73h0.79v0.42h-0.79v1.64c0,0.38,0.11,0.59,0.42,0.59c0.11,0,0.21-0.01,0.32-0.04l0.02,0.42
		c-0.16,0.05-0.32,0.08-0.49,0.08c-0.22,0.01-0.44-0.07-0.59-0.23c-0.17-0.23-0.24-0.51-0.22-0.8v-1.66h-0.47v-0.41h0.47v-0.55
		L62.98,10.43"/>
	<path class="st19" d="M64.65,11.16l0.66,1.79c0.07,0.2,0.15,0.44,0.2,0.62l0,0c0.06-0.18,0.12-0.41,0.19-0.63l0.6-1.78h0.58
		l-0.83,2.16c-0.4,1.04-0.66,1.57-1.04,1.9c-0.19,0.17-0.43,0.29-0.68,0.35l-0.14-0.46c0.18-0.06,0.34-0.15,0.48-0.28
		c0.2-0.17,0.36-0.38,0.46-0.61c0.02-0.04,0.04-0.09,0.04-0.13c0-0.05-0.02-0.1-0.04-0.14l-1.11-2.8L64.65,11.16"/>
	<path class="st19" d="M46.2,19.8c0.29,0.18,0.63,0.28,0.97,0.28c0.55,0,0.88-0.28,0.88-0.72c0-0.39-0.22-0.62-0.79-0.83
		c-0.69-0.25-1.11-0.61-1.11-1.2c0-0.66,0.55-1.15,1.36-1.15c0.32-0.01,0.64,0.06,0.93,0.21l-0.15,0.44
		c-0.24-0.14-0.51-0.2-0.79-0.2c-0.58,0-0.8,0.34-0.8,0.63c0,0.4,0.26,0.59,0.83,0.83c0.71,0.28,1.07,0.62,1.07,1.24
		c0,0.62-0.47,1.22-1.47,1.22c-0.38,0-0.75-0.09-1.08-0.28l0.14-0.46"/>
	<path class="st19" d="M49.98,16.7v0.73h0.79v0.43h-0.79v1.64c0,0.38,0.11,0.59,0.41,0.59c0.11,0,0.22-0.01,0.32-0.04l0.02,0.42
		c-0.16,0.05-0.32,0.08-0.49,0.07c-0.22,0.01-0.44-0.07-0.6-0.23c-0.16-0.23-0.24-0.51-0.21-0.8v-1.66h-0.47v-0.43h0.47v-0.55
		L49.98,16.7"/>
	<path class="st19" d="M53.53,19.74c0,0.24,0.01,0.48,0.04,0.72h-0.49l-0.05-0.39h-0.02c-0.21,0.29-0.56,0.46-0.92,0.46
		c-0.48,0.04-0.89-0.32-0.93-0.8c0-0.02,0-0.05,0-0.07c0-0.73,0.65-1.13,1.82-1.13v-0.06c0.05-0.34-0.19-0.65-0.53-0.7
		c-0.05-0.01-0.1-0.01-0.16,0c-0.28,0-0.56,0.07-0.8,0.22l-0.12-0.37c0.31-0.17,0.65-0.26,1-0.26c0.93,0,1.16,0.63,1.16,1.24
		L53.53,19.74 M53,18.91c-0.6,0-1.29,0.09-1.29,0.68c-0.02,0.27,0.17,0.5,0.44,0.53c0.02,0,0.05,0,0.07,0
		c0.33,0.01,0.63-0.19,0.75-0.51c0.02-0.06,0.03-0.11,0.03-0.17V18.91z"/>
	<path class="st19" d="M54.41,18.25c0-0.32,0-0.57-0.02-0.83h0.49l0.03,0.49l0,0c0.21-0.36,0.59-0.57,1-0.55
		c0.42,0,1.07,0.25,1.07,1.29v1.81h-0.55v-1.75c0-0.49-0.19-0.9-0.7-0.9c-0.34,0.01-0.63,0.23-0.74,0.55
		c-0.02,0.08-0.04,0.17-0.04,0.26v1.84H54.4v-2.21"/>
	<path class="st19" d="M60.51,16.01v3.67c0,0.28,0,0.57,0.02,0.78h-0.49l-0.02-0.53H60c-0.2,0.38-0.6,0.61-1.03,0.59
		c-0.73,0-1.3-0.62-1.3-1.54c0-1.01,0.63-1.63,1.36-1.63c0.37-0.03,0.71,0.15,0.91,0.46h0.02v-1.81H60.51 M59.96,18.66
		c0-0.08-0.01-0.16-0.03-0.24c-0.08-0.37-0.41-0.64-0.8-0.63c-0.57,0-0.91,0.5-0.91,1.17c0,0.62,0.31,1.12,0.9,1.12
		c0.39,0,0.72-0.28,0.8-0.66c0.02-0.08,0.03-0.16,0.03-0.24V18.66z"/>
	<path class="st19" d="M63.56,19.74c0,0.24,0.01,0.48,0.05,0.72h-0.5l-0.05-0.39h-0.02c-0.22,0.29-0.56,0.46-0.93,0.45
		c-0.47,0.04-0.89-0.32-0.93-0.79c0-0.03,0-0.05,0-0.08c0-0.73,0.65-1.13,1.82-1.13v-0.06c0.04-0.34-0.2-0.65-0.54-0.69
		c-0.05-0.01-0.1-0.01-0.15,0c-0.28,0-0.56,0.07-0.79,0.22l-0.13-0.37c0.31-0.17,0.65-0.26,1-0.26c0.93,0,1.16,0.63,1.16,1.24
		L63.56,19.74 M63.02,18.91c-0.6,0-1.29,0.09-1.29,0.68c-0.02,0.27,0.17,0.5,0.44,0.53c0.02,0,0.05,0,0.07,0
		c0.33,0.01,0.63-0.2,0.74-0.51c0.02-0.06,0.03-0.12,0.03-0.17V18.91z"/>
	<path class="st19" d="M64.45,18.37c0-0.36,0-0.66-0.02-0.95h0.48l0.02,0.6h0.02c0.11-0.38,0.45-0.65,0.85-0.66
		c0.05,0,0.1,0,0.15,0.01v0.52c-0.07,0-0.13,0-0.2,0c-0.39,0.02-0.7,0.32-0.74,0.7C65,18.68,65,18.77,65,18.86v1.6h-0.55
		L64.45,18.37"/>
	<path class="st19" d="M69.08,16.01v3.67c0,0.28,0,0.57,0.03,0.78h-0.5l-0.02-0.53l0,0c-0.2,0.38-0.6,0.61-1.03,0.59
		c-0.73,0-1.3-0.62-1.3-1.54c0-1.01,0.62-1.63,1.36-1.63c0.37-0.02,0.72,0.15,0.92,0.46l0,0v-1.81H69.08 M68.53,18.66
		c0-0.08-0.01-0.16-0.02-0.24c-0.09-0.37-0.42-0.63-0.8-0.63c-0.57,0-0.91,0.5-0.91,1.17c0,0.62,0.3,1.12,0.89,1.12
		c0.39,0,0.73-0.27,0.81-0.66c0.02-0.08,0.02-0.16,0.02-0.24V18.66z"/>
	<path class="st19" d="M69.92,19.9c0.22,0.13,0.47,0.2,0.73,0.21c0.4,0,0.58-0.2,0.58-0.45c0-0.25-0.15-0.41-0.55-0.55
		c-0.55-0.2-0.81-0.5-0.81-0.86c0-0.49,0.4-0.89,1.04-0.89c0.26-0.01,0.52,0.06,0.74,0.19l-0.13,0.4c-0.19-0.11-0.4-0.17-0.62-0.18
		c-0.32,0-0.5,0.19-0.5,0.41s0.18,0.37,0.57,0.52c0.52,0.19,0.8,0.46,0.8,0.91c0,0.55-0.42,0.91-1.13,0.91
		c-0.3,0-0.59-0.07-0.86-0.21L69.92,19.9"/>
	<path class="st19" d="M76.77,20.33c-0.35,0.14-0.73,0.21-1.11,0.2c-1.19,0-2.08-0.75-2.08-2.14c-0.06-1.16,0.82-2.15,1.98-2.21
		c0.08,0,0.16,0,0.23,0c0.34-0.01,0.69,0.05,1,0.19l-0.14,0.45c-0.26-0.12-0.55-0.18-0.84-0.18c-0.99,0-1.66,0.63-1.66,1.74
		c0,1.04,0.59,1.7,1.61,1.7c0.31,0,0.62-0.06,0.9-0.18L76.77,20.33"/>
	<path class="st19" d="M78.59,20.53c-0.83,0-1.46-0.6-1.46-1.56c0-1.01,0.67-1.61,1.5-1.61c0.83,0,1.46,0.63,1.46,1.55
		C80.1,20.04,79.32,20.53,78.59,20.53L78.59,20.53 M78.61,20.12c0.53,0,0.92-0.49,0.92-1.19c0-0.51-0.26-1.16-0.91-1.16
		c-0.65,0-0.93,0.6-0.93,1.18C77.7,19.61,78.07,20.12,78.61,20.12L78.61,20.12z"/>
	<path class="st19" d="M83.34,19.63c0,0.32,0,0.59,0.02,0.83h-0.49l-0.03-0.49l0,0c-0.21,0.35-0.6,0.56-1.01,0.55
		c-0.47,0-1.04-0.28-1.04-1.33v-1.76h0.55v1.67c0,0.58,0.18,0.97,0.68,0.97c0.32-0.01,0.61-0.21,0.73-0.51
		c0.03-0.09,0.05-0.18,0.05-0.28v-1.86h0.55v2.21"/>
	<path class="st19" d="M84.25,18.25c0-0.32,0-0.57-0.02-0.83h0.48l0.03,0.49l0,0c0.21-0.35,0.59-0.57,1-0.55
		c0.42,0,1.07,0.25,1.07,1.29v1.81h-0.55v-1.75c0-0.49-0.19-0.9-0.7-0.9c-0.34,0.01-0.64,0.23-0.74,0.55
		c-0.02,0.08-0.04,0.17-0.04,0.26v1.84h-0.55v-2.21"/>
	<path class="st19" d="M89.89,20.35c-0.27,0.12-0.57,0.18-0.87,0.17c-0.91,0-1.51-0.62-1.51-1.55c-0.04-0.85,0.62-1.58,1.47-1.62
		c0.05,0,0.11,0,0.16,0c0.26-0.01,0.52,0.05,0.76,0.16l-0.12,0.42c-0.2-0.1-0.41-0.15-0.64-0.15c-0.7,0-1.08,0.52-1.08,1.15
		c-0.06,0.57,0.36,1.08,0.94,1.14c0.04,0,0.08,0.01,0.12,0c0.23,0,0.46-0.05,0.68-0.14L89.89,20.35"/>
	<path class="st19" d="M90.8,16.87c-0.2,0-0.35-0.17-0.35-0.36c0-0.2,0.17-0.35,0.36-0.35c0.19,0,0.34,0.16,0.35,0.35
		c0.01,0.19-0.14,0.35-0.33,0.36C90.82,16.87,90.81,16.87,90.8,16.87L90.8,16.87 M91.08,20.46h-0.55v-3.04h0.55V20.46z"/>
	<rect x="92" y="16.01" class="st19" width="0.55" height="4.45"/>
	<path class="st19" d="M14.83,13.33c0.03,0.46-0.18,0.9-0.56,1.15c-0.49,0.27-1.05,0.4-1.61,0.37h-0.48v-2.97h0.52
		C14.12,11.89,14.83,12.37,14.83,13.33L14.83,13.33z"/>
	<path class="st19" d="M35.55,1L1.5,2.91l9.46,25.73l32.44-10.2L35.55,1z M18.87,13.28L18.87,13.28c0.02,0.61-0.14,1.21-0.43,1.73
		c-0.3,0.51-0.71,0.93-1.22,1.24c-0.59,0.36-1.23,0.61-1.9,0.75c-0.8,0.17-1.63,0.25-2.45,0.25h-0.65v3.32H8.01V9.5h4.94
		c1.84,0,3.29,0.31,4.35,0.94C18.32,11.01,18.93,12.11,18.87,13.28z M30.66,20.19c-0.45,0.15-0.91,0.26-1.38,0.35l0.02,0.01
		c-0.73,0.13-1.47,0.19-2.21,0.19c-1.05,0.01-2.11-0.12-3.12-0.4c-0.84-0.23-1.63-0.61-2.32-1.14c-0.62-0.47-1.11-1.09-1.45-1.79
		c-0.34-0.74-0.51-1.54-0.5-2.36c-0.01-0.81,0.17-1.61,0.53-2.34c0.36-0.71,0.87-1.32,1.49-1.81c0.69-0.53,1.46-0.92,2.29-1.16
		c0.95-0.28,1.94-0.42,2.92-0.41c0.75-0.02,1.51,0.03,2.25,0.17c0.42,0.08,0.82,0.2,1.22,0.36v2.96c-0.45-0.25-0.91-0.44-1.4-0.58
		C28.46,12.08,27.9,12,27.34,12c-0.85-0.04-1.68,0.24-2.34,0.78c-0.6,0.52-0.9,1.27-0.9,2.24c-0.01,0.46,0.08,0.91,0.28,1.32
		c0.18,0.37,0.45,0.7,0.77,0.96c0.33,0.25,0.71,0.44,1.11,0.55c0.45,0.13,0.91,0.2,1.38,0.19c0.5,0,1-0.06,1.48-0.16
		c0.53-0.12,1.04-0.28,1.54-0.46V20.19z M36.63,20.55h-4.24V9.51h4.24V20.55z M36.34,7.8c-1.07,0.85-2.58,0.85-3.65,0
		c-0.5-0.44-0.77-1.08-0.74-1.75c-0.04-0.67,0.24-1.33,0.74-1.77c1.07-0.85,2.59-0.85,3.65,0c0.51,0.45,0.78,1.1,0.74,1.77
		C37.12,6.71,36.85,7.36,36.34,7.8z"/>
	<polyline class="st19" points="89.61,10.34 89.12,10.34 89.12,9.99 90.52,9.99 90.52,10.34 90.02,10.34 90.02,11.81 89.61,11.81 
		89.61,10.34 	"/>
	<path class="st19" d="M92.27,11.11c0-0.22-0.02-0.48-0.02-0.75l0,0c-0.06,0.23-0.14,0.49-0.2,0.71l-0.23,0.71H91.5l-0.19-0.7
		c-0.06-0.22-0.12-0.48-0.17-0.72l0,0c0,0.25-0.02,0.53-0.03,0.75l-0.04,0.7h-0.38l0.11-1.82h0.55l0.18,0.61
		c0.06,0.21,0.11,0.43,0.15,0.65l0,0c0.05-0.21,0.11-0.45,0.18-0.65l0.19-0.61h0.55l0.1,1.82h-0.4L92.27,11.11"/>
</g>
</svg>
