<?xml version="1.0" encoding="utf-8"?>
<!-- Generator: Adobe Illustrator 23.1.1, SVG Export Plug-In . SVG Version: 6.00 Build 0)  -->
<svg version="1.1" id="Layer_1" xmlns="http://www.w3.org/2000/svg" xmlns:xlink="http://www.w3.org/1999/xlink" x="0px" y="0px"
	 viewBox="0 0 86.87 29.78" style="enable-background:new 0 0 86.87 29.78;" xml:space="preserve">
<style type="text/css">
	.st0{fill:#F4CD2A;}
	.st1{opacity:0.2;fill:#B6C5E6;}
	.st2{fill:#E6602E;}
	.st3{fill:#242A59;}
	.st4{opacity:0.1;fill:#28717D;}
	.st5{fill:#FFC629;}
	.st6{fill-rule:evenodd;clip-rule:evenodd;fill:#F29100;}
	.st7{fill:#28717D;}
	.st8{opacity:0.11;fill:#B6C8FB;}
	.st9{fill:#F4F7FE;}
	.st10{fill:#041266;}
	.st11{fill:#F7CD4F;}
	.st12{fill:#4A59D9;}
	.st13{fill:#FFFFFF;}
	.st14{fill:#1532E2;}
	.st15{fill:#B6C8FB;}
	.st16{opacity:0.5;fill:#B6C8FB;}
	.st17{fill:none;stroke:#B6C8FB;stroke-width:2;stroke-miterlimit:10;}
	.st18{opacity:0.6;}
	.st19{fill:#1D1D1B;}
	.st20{opacity:0.3;fill:#B6C8FB;}
	.st21{fill:#789EF4;}
	.st22{opacity:0.6;fill:#FFFFFF;}
	.st23{fill:#F8EAEA;}
	.st24{fill:#E8736D;}
	.st25{fill:#216169;}
	.st26{fill:#B42F2A;}
	.st27{fill:#F8B133;}
	.st28{opacity:0.3;fill:#F8B133;}
	.st29{fill:#F7CC4E;}
	.st30{fill:#E77817;}
	.st31{fill:#009FE3;}
	.st32{fill-rule:evenodd;clip-rule:evenodd;fill:#242A59;}
	.st33{fill-rule:evenodd;clip-rule:evenodd;fill:#F7CD4F;}
	.st34{fill-rule:evenodd;clip-rule:evenodd;fill:#F8B133;}
	.st35{opacity:0.95;fill:#FFFFFF;}
	.st36{fill:#7C98CE;}
	.st37{fill:#DFA100;}
	.st38{opacity:0.2;fill:#4759A3;}
	.st39{opacity:0.5;}
	.st40{fill:#B6C5E6;}
	.st41{fill:none;stroke:#F2C1BD;stroke-width:46;stroke-linecap:round;stroke-linejoin:round;stroke-miterlimit:10;}
	.st42{fill:#4759A3;}
	.st43{fill:#AD0E21;}
	.st44{fill:#233366;}
	.st45{fill:none;stroke:#FFFFFF;stroke-width:3;stroke-miterlimit:10;}
	.st46{fill-rule:evenodd;clip-rule:evenodd;fill:#AD0E21;}
	.st47{opacity:0.1;fill:#4759A3;}
	.st48{fill:#F7E8E9;}
	.st49{fill:#D9A237;}
	.st50{fill:#2F1618;}
	.st51{fill:#F4CFC2;}
	.st52{fill:#E9736F;}
	.st53{opacity:0.1;fill:#B6C8FB;}
	.st54{fill:none;stroke:#B6C8FB;stroke-miterlimit:10;}
	.st55{fill:url(#SVGID_1_);}
	.st56{fill:url(#SVGID_2_);}
	.st57{fill:url(#SVGID_3_);}
	.st58{fill:url(#SVGID_4_);}
	.st59{fill:url(#SVGID_5_);}
	.st60{fill:url(#SVGID_6_);}
	.st61{fill:url(#SVGID_7_);}
	.st62{fill:url(#SVGID_8_);}
	.st63{clip-path:url(#XMLID_17_);}
	.st64{filter:url(#Adobe_OpacityMaskFilter);}
	.st65{mask:url(#SVGID_9_);}
	.st66{fill:url(#SVGID_10_);}
	.st67{opacity:0.05;fill:url(#);}
	.st68{filter:url(#Adobe_OpacityMaskFilter_1_);}
	.st69{mask:url(#SVGID_11_);}
	.st70{fill:#704640;}
	.st71{clip-path:url(#XMLID_17_);fill:url(#SVGID_12_);}
	.st72{clip-path:url(#XMLID_17_);fill:url(#SVGID_13_);}
	.st73{clip-path:url(#XMLID_17_);fill:url(#SVGID_14_);}
	.st74{clip-path:url(#XMLID_17_);fill:url(#SVGID_15_);}
	.st75{fill:url(#SVGID_16_);}
	.st76{fill:url(#SVGID_17_);}
	.st77{fill:url(#SVGID_18_);}
	.st78{fill:url(#SVGID_19_);}
	.st79{fill:url(#SVGID_20_);}
	.st80{clip-path:url(#SVGID_22_);}
	.st81{fill:#333333;}
	.st82{opacity:0.09;fill:url(#);}
	.st83{fill:#0F0F0F;}
	.st84{fill:#2B2726;}
	.st85{clip-path:url(#XMLID_18_);}
	.st86{filter:url(#Adobe_OpacityMaskFilter_2_);}
	.st87{mask:url(#SVGID_23_);}
	.st88{fill:#707070;}
	.st89{opacity:0.52;clip-path:url(#XMLID_18_);}
	.st90{filter:url(#Adobe_OpacityMaskFilter_3_);}
	.st91{mask:url(#SVGID_24_);}
	.st92{fill:#0D1220;}
	.st93{opacity:0.9;clip-path:url(#XMLID_18_);}
	.st94{filter:url(#Adobe_OpacityMaskFilter_4_);}
	.st95{mask:url(#SVGID_25_);}
	.st96{clip-path:url(#XMLID_19_);}
	.st97{filter:url(#Adobe_OpacityMaskFilter_5_);}
	.st98{mask:url(#SVGID_26_);}
	.st99{fill:#11151C;}
	.st100{opacity:0.61;clip-path:url(#XMLID_19_);}
	.st101{filter:url(#Adobe_OpacityMaskFilter_6_);}
	.st102{mask:url(#SVGID_27_);}
	.st103{fill:#363D32;}
	.st104{filter:url(#Adobe_OpacityMaskFilter_7_);}
	.st105{mask:url(#SVGID_28_);}
	.st106{fill:#2F435C;}
	.st107{filter:url(#Adobe_OpacityMaskFilter_8_);}
	.st108{mask:url(#SVGID_29_);}
	.st109{fill:#507ACC;}
	.st110{filter:url(#Adobe_OpacityMaskFilter_9_);}
	.st111{mask:url(#SVGID_30_);}
	.st112{fill:#294F9B;}
	.st113{filter:url(#Adobe_OpacityMaskFilter_10_);}
	.st114{mask:url(#SVGID_31_);}
	.st115{fill:#6186C6;}
	.st116{opacity:0.59;clip-path:url(#XMLID_19_);}
	.st117{filter:url(#Adobe_OpacityMaskFilter_11_);}
	.st118{mask:url(#SVGID_32_);}
	.st119{fill:#1F262B;}
	.st120{opacity:0.1;}
	.st121{fill:url(#SVGID_33_);}
	.st122{opacity:0.08;fill:url(#);}
	.st123{opacity:0.04;}
	.st124{filter:url(#Adobe_OpacityMaskFilter_12_);}
	.st125{mask:url(#SVGID_34_);}
	.st126{clip-path:url(#XMLID_21_);}
	.st127{fill:#F3F3F3;}
	.st128{fill:url(#SVGID_37_);}
	.st129{fill:url(#SVGID_38_);}
	.st130{fill:url(#SVGID_39_);}
	.st131{fill:url(#SVGID_40_);}
	.st132{fill:url(#SVGID_41_);}
	.st133{fill:url(#SVGID_42_);}
	.st134{fill:url(#SVGID_43_);}
	.st135{fill:url(#SVGID_44_);}
	.st136{clip-path:url(#XMLID_23_);}
	.st137{filter:url(#Adobe_OpacityMaskFilter_13_);}
	.st138{mask:url(#SVGID_45_);}
	.st139{fill:url(#SVGID_46_);}
	.st140{filter:url(#Adobe_OpacityMaskFilter_14_);}
	.st141{mask:url(#SVGID_47_);}
	.st142{clip-path:url(#XMLID_23_);fill:url(#SVGID_48_);}
	.st143{clip-path:url(#XMLID_23_);fill:url(#SVGID_49_);}
	.st144{clip-path:url(#XMLID_23_);fill:url(#SVGID_50_);}
	.st145{clip-path:url(#XMLID_23_);fill:url(#SVGID_51_);}
	.st146{fill:url(#SVGID_52_);}
	.st147{fill:url(#SVGID_53_);}
	.st148{fill:url(#SVGID_54_);}
	.st149{fill:url(#SVGID_55_);}
	.st150{fill:url(#SVGID_56_);}
	.st151{clip-path:url(#SVGID_58_);}
	.st152{clip-path:url(#XMLID_24_);}
	.st153{filter:url(#Adobe_OpacityMaskFilter_15_);}
	.st154{mask:url(#SVGID_59_);}
	.st155{opacity:0.52;clip-path:url(#XMLID_24_);}
	.st156{filter:url(#Adobe_OpacityMaskFilter_16_);}
	.st157{mask:url(#SVGID_60_);}
	.st158{opacity:0.9;clip-path:url(#XMLID_24_);}
	.st159{filter:url(#Adobe_OpacityMaskFilter_17_);}
	.st160{mask:url(#SVGID_61_);}
	.st161{clip-path:url(#XMLID_29_);}
	.st162{filter:url(#Adobe_OpacityMaskFilter_18_);}
	.st163{mask:url(#SVGID_62_);}
	.st164{opacity:0.61;clip-path:url(#XMLID_29_);}
	.st165{filter:url(#Adobe_OpacityMaskFilter_19_);}
	.st166{mask:url(#SVGID_63_);}
	.st167{filter:url(#Adobe_OpacityMaskFilter_20_);}
	.st168{mask:url(#SVGID_64_);}
	.st169{filter:url(#Adobe_OpacityMaskFilter_21_);}
	.st170{mask:url(#SVGID_65_);}
	.st171{filter:url(#Adobe_OpacityMaskFilter_22_);}
	.st172{mask:url(#SVGID_66_);}
	.st173{filter:url(#Adobe_OpacityMaskFilter_23_);}
	.st174{mask:url(#SVGID_67_);}
	.st175{opacity:0.59;clip-path:url(#XMLID_29_);}
	.st176{filter:url(#Adobe_OpacityMaskFilter_24_);}
	.st177{mask:url(#SVGID_68_);}
	.st178{fill:url(#SVGID_69_);}
	.st179{filter:url(#Adobe_OpacityMaskFilter_25_);}
	.st180{mask:url(#SVGID_70_);}
	.st181{clip-path:url(#XMLID_37_);}
	.st182{fill:url(#SVGID_73_);}
	.st183{fill:url(#SVGID_74_);}
	.st184{fill:url(#SVGID_75_);}
	.st185{fill:url(#SVGID_76_);}
	.st186{fill:url(#SVGID_77_);}
	.st187{fill:url(#SVGID_78_);}
	.st188{fill:url(#SVGID_79_);}
	.st189{fill:url(#SVGID_80_);}
	.st190{clip-path:url(#XMLID_39_);}
	.st191{filter:url(#Adobe_OpacityMaskFilter_26_);}
	.st192{mask:url(#SVGID_81_);}
	.st193{fill:url(#SVGID_82_);}
	.st194{filter:url(#Adobe_OpacityMaskFilter_27_);}
	.st195{mask:url(#SVGID_83_);}
	.st196{clip-path:url(#XMLID_39_);fill:url(#SVGID_84_);}
	.st197{clip-path:url(#XMLID_39_);fill:url(#SVGID_85_);}
	.st198{clip-path:url(#XMLID_39_);fill:url(#SVGID_86_);}
	.st199{clip-path:url(#XMLID_39_);fill:url(#SVGID_87_);}
	.st200{fill:url(#SVGID_88_);}
	.st201{fill:url(#SVGID_89_);}
	.st202{fill:url(#SVGID_90_);}
	.st203{fill:url(#SVGID_91_);}
	.st204{fill:url(#SVGID_92_);}
	.st205{clip-path:url(#SVGID_94_);}
	.st206{clip-path:url(#XMLID_40_);}
	.st207{filter:url(#Adobe_OpacityMaskFilter_28_);}
	.st208{mask:url(#SVGID_95_);}
	.st209{opacity:0.52;clip-path:url(#XMLID_40_);}
	.st210{filter:url(#Adobe_OpacityMaskFilter_29_);}
	.st211{mask:url(#SVGID_96_);}
	.st212{opacity:0.9;clip-path:url(#XMLID_40_);}
	.st213{filter:url(#Adobe_OpacityMaskFilter_30_);}
	.st214{mask:url(#SVGID_97_);}
	.st215{clip-path:url(#XMLID_41_);}
	.st216{filter:url(#Adobe_OpacityMaskFilter_31_);}
	.st217{mask:url(#SVGID_98_);}
	.st218{opacity:0.61;clip-path:url(#XMLID_41_);}
	.st219{filter:url(#Adobe_OpacityMaskFilter_32_);}
	.st220{mask:url(#SVGID_99_);}
	.st221{filter:url(#Adobe_OpacityMaskFilter_33_);}
	.st222{mask:url(#SVGID_100_);}
	.st223{filter:url(#Adobe_OpacityMaskFilter_34_);}
	.st224{mask:url(#SVGID_101_);}
	.st225{filter:url(#Adobe_OpacityMaskFilter_35_);}
	.st226{mask:url(#SVGID_102_);}
	.st227{filter:url(#Adobe_OpacityMaskFilter_36_);}
	.st228{mask:url(#SVGID_103_);}
	.st229{opacity:0.59;clip-path:url(#XMLID_41_);}
	.st230{filter:url(#Adobe_OpacityMaskFilter_37_);}
	.st231{mask:url(#SVGID_104_);}
	.st232{fill:url(#SVGID_105_);}
	.st233{filter:url(#Adobe_OpacityMaskFilter_38_);}
	.st234{mask:url(#SVGID_106_);}
	.st235{clip-path:url(#XMLID_43_);}
	.st236{fill:url(#SVGID_109_);}
	.st237{fill:url(#SVGID_110_);}
	.st238{fill:url(#SVGID_111_);}
	.st239{fill:url(#SVGID_112_);}
	.st240{fill:url(#SVGID_113_);}
	.st241{fill:url(#SVGID_114_);}
	.st242{fill:url(#SVGID_115_);}
	.st243{fill:url(#SVGID_116_);}
	.st244{clip-path:url(#XMLID_45_);}
	.st245{filter:url(#Adobe_OpacityMaskFilter_39_);}
	.st246{mask:url(#SVGID_117_);}
	.st247{fill:url(#SVGID_118_);}
	.st248{filter:url(#Adobe_OpacityMaskFilter_40_);}
	.st249{mask:url(#SVGID_119_);}
	.st250{clip-path:url(#XMLID_45_);fill:url(#SVGID_120_);}
	.st251{clip-path:url(#XMLID_45_);fill:url(#SVGID_121_);}
	.st252{clip-path:url(#XMLID_45_);fill:url(#SVGID_122_);}
	.st253{clip-path:url(#XMLID_45_);fill:url(#SVGID_123_);}
	.st254{fill:url(#SVGID_124_);}
	.st255{fill:url(#SVGID_125_);}
	.st256{fill:url(#SVGID_126_);}
	.st257{fill:url(#SVGID_127_);}
	.st258{fill:url(#SVGID_128_);}
	.st259{clip-path:url(#SVGID_130_);}
	.st260{clip-path:url(#XMLID_46_);}
	.st261{filter:url(#Adobe_OpacityMaskFilter_41_);}
	.st262{mask:url(#SVGID_131_);}
	.st263{opacity:0.52;clip-path:url(#XMLID_46_);}
	.st264{filter:url(#Adobe_OpacityMaskFilter_42_);}
	.st265{mask:url(#SVGID_132_);}
	.st266{opacity:0.9;clip-path:url(#XMLID_46_);}
	.st267{filter:url(#Adobe_OpacityMaskFilter_43_);}
	.st268{mask:url(#SVGID_133_);}
	.st269{clip-path:url(#XMLID_47_);}
	.st270{filter:url(#Adobe_OpacityMaskFilter_44_);}
	.st271{mask:url(#SVGID_134_);}
	.st272{opacity:0.61;clip-path:url(#XMLID_47_);}
	.st273{filter:url(#Adobe_OpacityMaskFilter_45_);}
	.st274{mask:url(#SVGID_135_);}
	.st275{filter:url(#Adobe_OpacityMaskFilter_46_);}
	.st276{mask:url(#SVGID_136_);}
	.st277{filter:url(#Adobe_OpacityMaskFilter_47_);}
	.st278{mask:url(#SVGID_137_);}
	.st279{filter:url(#Adobe_OpacityMaskFilter_48_);}
	.st280{mask:url(#SVGID_138_);}
	.st281{filter:url(#Adobe_OpacityMaskFilter_49_);}
	.st282{mask:url(#SVGID_139_);}
	.st283{opacity:0.59;clip-path:url(#XMLID_47_);}
	.st284{filter:url(#Adobe_OpacityMaskFilter_50_);}
	.st285{mask:url(#SVGID_140_);}
	.st286{fill:url(#SVGID_141_);}
	.st287{filter:url(#Adobe_OpacityMaskFilter_51_);}
	.st288{mask:url(#SVGID_142_);}
	.st289{clip-path:url(#XMLID_49_);}
	.st290{fill:#E30613;}
	.st291{fill:#FFE54A;}
</style>
<g>
	<path class="st19" d="M17.05,11.09c0.01-0.55-0.21-1.08-0.6-1.46c-0.39-0.38-0.91-0.6-1.45-0.6c-1.14,0-2.06,0.92-2.07,2.06v1.55
		h4.12V11.09z"/>
	<path class="st19" d="M17.52,14.55c-0.09-0.09-0.2-0.16-0.31-0.2c-0.1-0.03-0.2,0-0.28,0.07l-2.7,2.73l-1.25-1.19
		c-0.07-0.07-0.17-0.09-0.25-0.07c-0.11,0.03-0.2,0.09-0.28,0.17c-0.08,0.07-0.14,0.17-0.17,0.28c-0.03,0.09,0,0.19,0.06,0.25
		l1.66,1.61c0.07,0.08,0.17,0.13,0.28,0.16c0.1,0.02,0.2-0.01,0.27-0.08l3.1-3.14c0.07-0.07,0.1-0.18,0.07-0.28
		C17.68,14.74,17.61,14.63,17.52,14.55z"/>
	<path class="st19" d="M52.71,14.22c-0.09-0.1-0.2-0.19-0.33-0.25s-0.29-0.09-0.46-0.09c-0.35,0-0.62,0.1-0.82,0.3
		s-0.32,0.48-0.38,0.84h2.25c0-0.16-0.02-0.3-0.06-0.44C52.86,14.44,52.8,14.32,52.71,14.22z"/>
	<path class="st19" d="M71.97,14.22c-0.09-0.1-0.2-0.19-0.33-0.25s-0.29-0.09-0.46-0.09c-0.35,0-0.62,0.1-0.82,0.3
		s-0.32,0.48-0.38,0.84h2.25c0-0.16-0.02-0.3-0.06-0.44C72.12,14.44,72.06,14.32,71.97,14.22z"/>
	<path class="st19" d="M83.49,5.25H29.02c-1.94,0-3.83-0.61-5.42-1.72l0.09,0.07C17.54-0.93,8.89,0.37,4.36,6.52
		c-4.53,6.15-3.22,14.8,2.92,19.33c2.37,1.75,5.25,2.7,8.2,2.7c2.92,0.01,5.76-0.92,8.12-2.64c1.58-1.11,3.47-1.71,5.41-1.71h54.48
		c0.92,0,1.66-0.95,1.66-2.13V7.36C85.16,6.19,84.41,5.25,83.49,5.25z M19.62,19.41c0,0.43-0.34,0.77-0.77,0.77h-7.72
		c-0.43,0-0.77-0.35-0.76-0.77v-6c0-0.43,0.35-0.77,0.77-0.77h0.26v-1.55C11.42,9.11,13.02,7.51,15,7.5
		c1.98,0.02,3.58,1.62,3.59,3.59v1.55h0.26c0.21-0.01,0.41,0.08,0.55,0.23c0.14,0.14,0.22,0.34,0.22,0.54V19.41z M31.48,16.77
		c-0.11,0.28-0.27,0.52-0.47,0.72c-0.21,0.21-0.46,0.37-0.76,0.48c-0.3,0.12-0.64,0.18-1.03,0.18c-0.22,0-0.44-0.02-0.66-0.07
		c-0.22-0.04-0.42-0.11-0.62-0.19c-0.2-0.08-0.38-0.18-0.56-0.29s-0.33-0.24-0.46-0.38l0.38-0.62c0.04-0.04,0.08-0.08,0.13-0.11
		c0.05-0.03,0.11-0.05,0.17-0.05c0.08,0,0.17,0.03,0.26,0.1c0.09,0.07,0.2,0.14,0.33,0.22c0.13,0.08,0.28,0.15,0.45,0.22
		c0.17,0.07,0.38,0.1,0.62,0.1c0.37,0,0.66-0.09,0.86-0.26c0.2-0.18,0.31-0.43,0.31-0.76c0-0.18-0.05-0.33-0.14-0.45
		c-0.09-0.12-0.21-0.21-0.37-0.29s-0.32-0.15-0.52-0.2S29,15,28.8,14.94c-0.2-0.06-0.4-0.14-0.59-0.23
		c-0.19-0.09-0.37-0.21-0.52-0.35c-0.15-0.14-0.27-0.33-0.37-0.54c-0.09-0.22-0.14-0.49-0.14-0.81c0-0.25,0.05-0.5,0.15-0.75
		c0.1-0.24,0.25-0.46,0.45-0.64c0.2-0.19,0.44-0.34,0.72-0.45c0.28-0.11,0.61-0.17,0.97-0.17c0.41,0,0.79,0.06,1.14,0.19
		s0.65,0.31,0.89,0.54l-0.32,0.61c-0.04,0.07-0.08,0.12-0.12,0.15c-0.05,0.03-0.1,0.04-0.17,0.04c-0.06,0-0.14-0.03-0.22-0.08
		s-0.18-0.11-0.29-0.17s-0.24-0.12-0.38-0.17c-0.15-0.05-0.32-0.08-0.52-0.08c-0.18,0-0.34,0.02-0.47,0.07
		c-0.13,0.04-0.25,0.1-0.34,0.18c-0.09,0.08-0.16,0.17-0.21,0.28c-0.05,0.11-0.07,0.23-0.07,0.36c0,0.17,0.05,0.3,0.14,0.41
		c0.09,0.11,0.21,0.2,0.37,0.28c0.15,0.08,0.32,0.15,0.52,0.21c0.19,0.06,0.39,0.13,0.59,0.2c0.2,0.07,0.4,0.15,0.59,0.24
		c0.19,0.09,0.37,0.21,0.52,0.35c0.15,0.14,0.27,0.31,0.37,0.52c0.09,0.2,0.14,0.45,0.14,0.74C31.64,16.2,31.59,16.49,31.48,16.77z
		 M36.68,16.77c-0.11,0.28-0.27,0.52-0.47,0.72c-0.21,0.21-0.46,0.37-0.76,0.48c-0.3,0.12-0.64,0.18-1.03,0.18
		c-0.22,0-0.44-0.02-0.66-0.07c-0.22-0.04-0.42-0.11-0.62-0.19c-0.2-0.08-0.38-0.18-0.56-0.29s-0.33-0.24-0.46-0.38l0.38-0.62
		c0.04-0.04,0.08-0.08,0.13-0.11c0.05-0.03,0.11-0.05,0.17-0.05c0.08,0,0.17,0.03,0.26,0.1c0.09,0.07,0.2,0.14,0.33,0.22
		c0.13,0.08,0.28,0.15,0.45,0.22c0.17,0.07,0.38,0.1,0.62,0.1c0.37,0,0.66-0.09,0.86-0.26c0.2-0.18,0.31-0.43,0.31-0.76
		c0-0.18-0.05-0.33-0.14-0.45c-0.09-0.12-0.21-0.21-0.37-0.29s-0.32-0.15-0.52-0.2S34.2,15,34,14.94c-0.2-0.06-0.4-0.14-0.59-0.23
		c-0.19-0.09-0.37-0.21-0.52-0.35c-0.15-0.14-0.27-0.33-0.37-0.54c-0.09-0.22-0.14-0.49-0.14-0.81c0-0.25,0.05-0.5,0.15-0.75
		c0.1-0.24,0.25-0.46,0.45-0.64c0.2-0.19,0.44-0.34,0.72-0.45c0.28-0.11,0.61-0.17,0.97-0.17c0.41,0,0.79,0.06,1.14,0.19
		s0.65,0.31,0.89,0.54l-0.32,0.61c-0.04,0.07-0.08,0.12-0.12,0.15c-0.05,0.03-0.1,0.04-0.17,0.04c-0.06,0-0.14-0.03-0.22-0.08
		s-0.18-0.11-0.29-0.17s-0.24-0.12-0.38-0.17c-0.15-0.05-0.32-0.08-0.52-0.08c-0.18,0-0.34,0.02-0.47,0.07
		c-0.13,0.04-0.25,0.1-0.34,0.18c-0.09,0.08-0.16,0.17-0.21,0.28c-0.05,0.11-0.07,0.23-0.07,0.36c0,0.17,0.05,0.3,0.14,0.41
		c0.09,0.11,0.21,0.2,0.37,0.28c0.15,0.08,0.32,0.15,0.52,0.21c0.19,0.06,0.39,0.13,0.59,0.2c0.2,0.07,0.4,0.15,0.59,0.24
		c0.19,0.09,0.37,0.21,0.52,0.35c0.15,0.14,0.27,0.31,0.37,0.52c0.09,0.2,0.14,0.45,0.14,0.74C36.84,16.2,36.78,16.49,36.68,16.77z
		 M41.94,18.07h-4.11v-7h1.3V17h2.8V18.07z M48.75,16.77c-0.11,0.28-0.27,0.52-0.47,0.72c-0.21,0.21-0.46,0.37-0.76,0.48
		c-0.3,0.12-0.64,0.18-1.03,0.18c-0.22,0-0.44-0.02-0.66-0.07c-0.22-0.04-0.42-0.11-0.62-0.19c-0.2-0.08-0.38-0.18-0.56-0.29
		s-0.33-0.24-0.46-0.38l0.38-0.62c0.04-0.04,0.08-0.08,0.13-0.11c0.05-0.03,0.11-0.05,0.17-0.05c0.08,0,0.17,0.03,0.26,0.1
		c0.09,0.07,0.2,0.14,0.33,0.22c0.13,0.08,0.28,0.15,0.45,0.22c0.17,0.07,0.38,0.1,0.62,0.1c0.37,0,0.66-0.09,0.86-0.26
		c0.2-0.18,0.31-0.43,0.31-0.76c0-0.18-0.05-0.33-0.14-0.45c-0.09-0.12-0.21-0.21-0.37-0.29s-0.32-0.15-0.52-0.2
		s-0.39-0.11-0.59-0.18c-0.2-0.06-0.4-0.14-0.59-0.23c-0.19-0.09-0.37-0.21-0.52-0.35c-0.15-0.14-0.27-0.33-0.37-0.54
		c-0.09-0.22-0.14-0.49-0.14-0.81c0-0.25,0.05-0.5,0.15-0.75c0.1-0.24,0.25-0.46,0.45-0.64c0.2-0.19,0.44-0.34,0.72-0.45
		c0.28-0.11,0.61-0.17,0.97-0.17c0.41,0,0.79,0.06,1.14,0.19s0.65,0.31,0.89,0.54l-0.32,0.61c-0.04,0.07-0.08,0.12-0.12,0.15
		c-0.05,0.03-0.1,0.04-0.17,0.04c-0.06,0-0.14-0.03-0.22-0.08s-0.18-0.11-0.29-0.17s-0.24-0.12-0.38-0.17
		c-0.15-0.05-0.32-0.08-0.52-0.08c-0.18,0-0.34,0.02-0.47,0.07c-0.13,0.04-0.25,0.1-0.34,0.18c-0.09,0.08-0.16,0.17-0.21,0.28
		c-0.05,0.11-0.07,0.23-0.07,0.36c0,0.17,0.05,0.3,0.14,0.41c0.09,0.11,0.21,0.2,0.37,0.28c0.15,0.08,0.32,0.15,0.52,0.21
		c0.19,0.06,0.39,0.13,0.59,0.2c0.2,0.07,0.4,0.15,0.59,0.24c0.19,0.09,0.37,0.21,0.52,0.35c0.15,0.14,0.27,0.31,0.37,0.52
		c0.09,0.2,0.14,0.45,0.14,0.74C48.91,16.2,48.86,16.49,48.75,16.77z M54.03,15.5c-0.01,0.06-0.02,0.11-0.04,0.14
		s-0.05,0.06-0.08,0.07c-0.04,0.01-0.08,0.02-0.14,0.02H50.7c0.04,0.51,0.17,0.88,0.41,1.12c0.24,0.24,0.56,0.36,0.95,0.36
		c0.19,0,0.36-0.02,0.5-0.07c0.14-0.04,0.26-0.1,0.37-0.15s0.2-0.1,0.28-0.15c0.08-0.04,0.16-0.07,0.23-0.07
		c0.05,0,0.09,0.01,0.13,0.03c0.04,0.02,0.07,0.05,0.09,0.08L54,17.33c-0.13,0.16-0.28,0.29-0.45,0.39
		c-0.16,0.11-0.34,0.19-0.52,0.25c-0.18,0.06-0.36,0.11-0.55,0.13c-0.19,0.03-0.37,0.04-0.54,0.04c-0.35,0-0.67-0.06-0.96-0.17
		c-0.3-0.11-0.56-0.28-0.77-0.51c-0.22-0.22-0.39-0.5-0.52-0.83s-0.19-0.71-0.19-1.15c0-0.34,0.05-0.66,0.16-0.96
		c0.11-0.3,0.27-0.56,0.47-0.78c0.21-0.22,0.46-0.4,0.75-0.53s0.63-0.19,1-0.19c0.31,0,0.6,0.05,0.86,0.15
		c0.26,0.1,0.49,0.25,0.68,0.44c0.19,0.19,0.34,0.43,0.45,0.71s0.16,0.6,0.16,0.96C54.04,15.37,54.04,15.44,54.03,15.5z
		 M58.44,17.72c-0.15,0.11-0.32,0.19-0.48,0.25c-0.17,0.06-0.34,0.11-0.52,0.13c-0.18,0.03-0.35,0.04-0.53,0.04
		c-0.31,0-0.6-0.06-0.87-0.17c-0.27-0.11-0.51-0.28-0.71-0.5c-0.2-0.22-0.36-0.49-0.48-0.81c-0.12-0.32-0.18-0.68-0.18-1.09
		c0-0.36,0.05-0.7,0.16-1.01s0.26-0.58,0.46-0.81c0.2-0.23,0.46-0.41,0.76-0.54s0.65-0.19,1.04-0.19c0.37,0,0.7,0.06,0.98,0.18
		c0.28,0.12,0.53,0.29,0.75,0.51l-0.31,0.44c-0.04,0.04-0.07,0.08-0.1,0.11c-0.03,0.03-0.08,0.04-0.15,0.04
		c-0.06,0-0.12-0.02-0.18-0.06s-0.13-0.08-0.21-0.13s-0.18-0.09-0.29-0.13s-0.25-0.06-0.41-0.06c-0.21,0-0.39,0.04-0.55,0.11
		c-0.16,0.08-0.29,0.19-0.39,0.33c-0.1,0.14-0.18,0.31-0.23,0.52c-0.05,0.2-0.08,0.43-0.08,0.69c0,0.26,0.03,0.5,0.08,0.71
		c0.06,0.21,0.14,0.38,0.24,0.52c0.11,0.14,0.24,0.25,0.39,0.32c0.15,0.07,0.32,0.11,0.51,0.11s0.34-0.02,0.46-0.07
		c0.12-0.05,0.22-0.1,0.3-0.16c0.08-0.06,0.15-0.11,0.21-0.15c0.06-0.05,0.13-0.07,0.2-0.07c0.1,0,0.17,0.04,0.22,0.11l0.34,0.44
		C58.74,17.49,58.6,17.62,58.44,17.72z M63.87,18.07h-0.73c-0.15,0-0.26-0.07-0.31-0.22l-0.08-0.4c-0.1,0.1-0.21,0.2-0.32,0.28
		c-0.11,0.09-0.23,0.16-0.35,0.22c-0.12,0.06-0.26,0.11-0.4,0.14c-0.14,0.03-0.3,0.05-0.46,0.05c-0.27,0-0.51-0.05-0.72-0.14
		c-0.21-0.09-0.38-0.22-0.53-0.39s-0.25-0.37-0.32-0.6c-0.07-0.23-0.11-0.48-0.11-0.76V13.1h1.2v3.16c0,0.3,0.07,0.54,0.21,0.71
		c0.14,0.17,0.35,0.25,0.63,0.25c0.21,0,0.4-0.05,0.58-0.14c0.18-0.09,0.35-0.22,0.51-0.38V13.1h1.2V18.07z M68.16,14.08
		c-0.01,0.06-0.03,0.1-0.06,0.12s-0.08,0.04-0.13,0.04c-0.05,0-0.11-0.01-0.2-0.03s-0.2-0.03-0.33-0.03c-0.25,0-0.46,0.07-0.64,0.21
		c-0.18,0.14-0.33,0.34-0.45,0.6v3.09h-1.2V13.1h0.7c0.12,0,0.21,0.02,0.26,0.07c0.05,0.05,0.08,0.12,0.1,0.23l0.07,0.6
		c0.18-0.31,0.39-0.55,0.62-0.73c0.24-0.18,0.51-0.27,0.8-0.27c0.25,0,0.45,0.06,0.61,0.17L68.16,14.08z M73.29,15.5
		c-0.01,0.06-0.02,0.11-0.04,0.14s-0.05,0.06-0.08,0.07c-0.04,0.01-0.08,0.02-0.14,0.02h-3.07c0.04,0.51,0.17,0.88,0.41,1.12
		c0.24,0.24,0.56,0.36,0.95,0.36c0.19,0,0.36-0.02,0.5-0.07c0.14-0.04,0.26-0.1,0.37-0.15s0.2-0.1,0.28-0.15
		c0.08-0.04,0.16-0.07,0.23-0.07c0.05,0,0.09,0.01,0.13,0.03c0.04,0.02,0.07,0.05,0.09,0.08l0.35,0.44
		c-0.13,0.16-0.28,0.29-0.45,0.39c-0.16,0.11-0.34,0.19-0.52,0.25c-0.18,0.06-0.36,0.11-0.55,0.13c-0.19,0.03-0.37,0.04-0.54,0.04
		c-0.35,0-0.67-0.06-0.96-0.17c-0.3-0.11-0.56-0.28-0.77-0.51c-0.22-0.22-0.39-0.5-0.52-0.83s-0.19-0.71-0.19-1.15
		c0-0.34,0.05-0.66,0.16-0.96c0.11-0.3,0.27-0.56,0.47-0.78c0.21-0.22,0.46-0.4,0.75-0.53s0.63-0.19,1-0.19
		c0.31,0,0.6,0.05,0.86,0.15c0.26,0.1,0.49,0.25,0.68,0.44c0.19,0.19,0.34,0.43,0.45,0.71s0.16,0.6,0.16,0.96
		C73.3,15.37,73.3,15.44,73.29,15.5z M78.51,18.07h-0.73c-0.15,0-0.26-0.07-0.31-0.22l-0.1-0.48c-0.1,0.12-0.21,0.22-0.32,0.31
		c-0.11,0.09-0.23,0.17-0.37,0.24c-0.13,0.07-0.27,0.12-0.42,0.16c-0.15,0.04-0.31,0.06-0.49,0.06c-0.27,0-0.52-0.06-0.75-0.17
		c-0.23-0.11-0.42-0.28-0.58-0.49c-0.16-0.21-0.29-0.48-0.38-0.8s-0.13-0.68-0.13-1.08c0-0.37,0.05-0.71,0.15-1.03
		s0.24-0.59,0.43-0.82c0.19-0.23,0.41-0.41,0.67-0.54c0.26-0.13,0.56-0.2,0.88-0.2c0.28,0,0.51,0.04,0.71,0.13
		c0.2,0.09,0.37,0.21,0.53,0.36v-2.62h1.2V18.07z"/>
	<path class="st19" d="M76.35,13.92c-0.18,0-0.34,0.03-0.49,0.1c-0.15,0.07-0.27,0.17-0.37,0.31c-0.1,0.14-0.18,0.31-0.23,0.52
		c-0.06,0.21-0.08,0.46-0.08,0.75c0,0.29,0.02,0.54,0.07,0.74c0.05,0.2,0.11,0.37,0.2,0.49c0.09,0.13,0.19,0.22,0.32,0.28
		s0.27,0.08,0.42,0.08c0.25,0,0.46-0.05,0.63-0.15s0.34-0.25,0.49-0.44v-2.23c-0.14-0.16-0.28-0.28-0.44-0.35
		C76.71,13.96,76.53,13.92,76.35,13.92z"/>
</g>
</svg>
