<svg id="Capa_1" data-name="Capa 1" xmlns="http://www.w3.org/2000/svg" xmlns:xlink="http://www.w3.org/1999/xlink" viewBox="0 0 214.99 100"><defs><style>.cls-1{fill:url(#Blue_Gradient_01);}</style><linearGradient id="Blue_Gradient_01" x1="0.3" y1="47.99" x2="214.99" y2="47.99" gradientUnits="userSpaceOnUse"><stop offset="0" stop-color="#2d2853"/><stop offset="1" stop-color="#2f3b81"/></linearGradient></defs><title>Caso de uso - PROPTECH</title><path class="cls-1" d="M81.81,14.55,53.71,81.6H35.37L21.54,28.09c-.84-3.3-1.57-4.51-4.12-5.89C13.25,19.93,6.36,17.81.3,16.49l.41-1.94H30.23a8.08,8.08,0,0,1,8,6.83l7.31,38.81L63.59,14.55Zm71.85,45.16c.08-17.7-24.47-18.68-24.3-26.58,0-2.41,2.34-5,7.36-5.62a32.84,32.84,0,0,1,17.1,3l3.05-14.22a46.79,46.79,0,0,0-16.23-3c-17.15,0-29.22,9.11-29.31,22.16-.12,9.66,8.61,15,15.19,18.26,6.75,3.28,9,5.39,9,8.33,0,4.5-5.39,6.48-10.38,6.56-8.72.14-13.79-2.36-17.82-4.23l-3.14,14.69c4,1.86,11.53,3.48,19.29,3.56,18.23,0,30.15-9,30.2-22.94M198.94,81.6H215l-14-67H186.17a7.89,7.89,0,0,0-7.38,4.91l-26,62.14H171l3.62-10h22.26ZM179.58,57.84l9.14-25.18L194,57.84Zm-73-43.29L92.25,81.6H74.91l14.35-67Z"/></svg>